<?xml version="1.0" encoding="UTF-8" standalone="no"?>
<!-- Created with Inkscape (http://www.inkscape.org/) -->

<svg
   width="24"
   height="24"
   viewBox="0 0 6.3499998 6.3500002"
   version="1.1"
   id="svg5"
   inkscape:version="1.1.1 (3bf5ae0d25, 2021-09-20)"
   sodipodi:docname="anaconda.svg"
   xmlns:inkscape="http://www.inkscape.org/namespaces/inkscape"
   xmlns:sodipodi="http://sodipodi.sourceforge.net/DTD/sodipodi-0.dtd"
   xmlns="http://www.w3.org/2000/svg"
   xmlns:svg="http://www.w3.org/2000/svg">
  <sodipodi:namedview
     id="namedview7"
     pagecolor="#505050"
     bordercolor="#ffffff"
     borderopacity="1"
     inkscape:pageshadow="0"
     inkscape:pageopacity="0"
     inkscape:pagecheckerboard="1"
     inkscape:document-units="mm"
     showgrid="false"
     inkscape:snap-bbox="true"
     inkscape:object-paths="true"
     inkscape:snap-intersection-paths="true"
     inkscape:snap-smooth-nodes="true"
     inkscape:snap-midpoints="true"
     inkscape:snap-global="true"
     units="px"
     inkscape:snap-page="true"
     inkscape:bbox-nodes="true"
     inkscape:bbox-paths="true"
     inkscape:zoom="8.4863924"
     inkscape:cx="7.6593206"
     inkscape:cy="7.6004027"
     inkscape:window-width="1920"
     inkscape:window-height="1027"
     inkscape:window-x="1912"
     inkscape:window-y="-8"
     inkscape:window-maximized="1"
     inkscape:current-layer="layer1" />
  <defs
     id="defs2" />
  <g
     inkscape:label="Warstwa 1"
     inkscape:groupmode="layer"
     id="layer1">
    <rect
       style="fill:#ffffff;fill-opacity:1;stroke-width:0.0396875"
       id="rect7216"
       width="6.3499999"
       height="6.3499999"
       x="0"
       y="0" />
    <g
       id="g7112"
       transform="matrix(0.07267971,0,0,0.07267971,-4.4579905,-7.6181631)">
      <ellipse
         style="fill:#ffffff;fill-opacity:1;stroke-width:0.0376462"
         id="path4034"
         cx="105.00036"
         cy="148.50658"
         rx="36.10062"
         ry="36.059265" />
      <path
         style="fill:#3baf29;fill-opacity:1;stroke-width:0.264583"
         d="m 99.059963,184.21536 c -4.347502,-0.73407 -8.710772,-2.29926 -12.217851,-4.38278 -1.008478,-0.59912 -1.666442,-1.08307 -2.035463,-1.41492 -0.221128,-0.58472 -0.829453,-6.2957 -0.826103,-7.71762 l 0.0019,-0.77974 4.119313,-0.064 4.119312,-0.064 2.176988,1.05372 c 3.635232,1.75955 5.737031,2.20616 10.482801,2.22743 4.54599,0.0204 6.13505,-0.2762 9.83848,-1.83626 8.4047,-3.54043 14.19476,-11.74476 14.93381,-21.1607 0.34962,-4.45438 -1.03031,-10.05214 -3.50516,-14.21884 -1.39179,-2.3432 -4.9172,-6.13896 -7.02613,-7.56492 -4.08432,-2.76162 -8.86807,-4.29362 -13.63106,-4.36537 l -2.96192,-0.0446 0.70712,-0.79375 c 0.38892,-0.43656 1.58386,-1.70032 2.65542,-2.80835 l 1.94829,-2.0146 -2.07475,-1.82598 c -1.14111,-1.0043 -2.66329,-2.2265 -3.35994,-2.74702 l -1.37872,-1.03016 c 0,0 0.8562,-0.0826 1.24643,-0.10747 1.35775,-0.0865 3.49939,-0.19893 5.77251,-0.0219 1.30213,0.10142 2.57459,0.33996 3.85647,0.57804 4.85409,0.90152 9.65213,2.91638 13.7098,5.79054 4.45584,3.1562 7.31493,6.32791 9.54328,9.79887 2.1401,3.3335 3.83455,6.96137 4.81482,10.68099 2.24211,8.50767 1.27573,17.62725 -2.87825,25.74279 -5.16937,10.09928 -15.00806,17.26709 -26.19059,19.08071 -2.94154,0.47707 -9.04362,0.48215 -11.840757,0.01 z M 79.235946,173.80049 c -1.410451,-1.46212 -2.857858,-3.22406 -3.343081,-3.93338 l -0.872158,-1.27497 0.910918,0.26373 c 0.569595,0.11077 2.022181,0.35025 3.227972,0.5322 1.205791,0.18195 2.259168,0.39763 2.34084,0.4793 0.215392,0.21539 0.766137,6.25007 0.580799,6.43541 -0.08587,0.0859 -1.434838,-1.04016 -2.84529,-2.50229 z m 4.771479,-7.25363 c 0.01579,-0.61846 0.105092,-1.83885 0.198437,-2.71198 l 0.169723,-1.5875 1.221435,1.5875 c 0.671788,0.87313 1.770457,2.09352 2.441483,2.71198 l 1.220049,1.12448 h -2.63992 -2.639922 z m -4.262049,0.68192 c -0.363802,-0.0583 -1.873633,-0.35349 -3.355181,-0.65607 l -2.693725,-0.55015 0.759732,-2.15217 c 0.727083,-2.05968 2.071233,-5.19488 2.227196,-5.19488 0.04083,0 1.284701,0.59939 2.764163,1.33198 l 2.689934,1.33199 -0.151405,2.17374 c -0.08327,1.19556 -0.210177,2.5607 -0.282006,3.03364 -0.136276,0.89725 -0.286758,0.94964 -1.958708,0.68192 z m -8.545269,-5.86043 c -0.430776,-1.16218 -0.956845,-2.89881 -1.335167,-4.49862 -0.207361,-0.87686 -0.337619,-1.71262 -0.45969,-2.39015 -0.183531,-1.01866 -0.383737,-1.05289 2.456371,1.04825 1.120968,0.82929 2.164427,1.54991 2.318801,1.60137 0.165131,0.0551 -0.163904,1.12783 -0.799248,2.60587 -0.593961,1.38177 -1.169334,2.74174 -1.278607,3.02215 -0.155808,0.39982 -0.350538,0.10014 -0.90246,-1.38887 z m 8.942144,-3.80891 c -1.164166,-0.58435 -2.161643,-1.10343 -2.216615,-1.15352 -0.05497,-0.0501 0.466674,-1.00018 1.159211,-2.11131 1.244592,-1.99687 1.694418,-2.20041 1.720445,-0.77848 0.0053,0.29104 0.352909,1.5412 0.772401,2.77813 0.419491,1.23692 0.744378,2.26665 0.721968,2.28829 -0.02241,0.0216 -0.993243,-0.43877 -2.15741,-1.02311 z m -7.635605,-4.7377 -2.862947,-2.14962 1.280525,-1.31136 c 0.704292,-0.72126 1.941684,-1.88852 2.749767,-2.59393 l 1.469236,-1.28255 1.245005,1.63467 c 0.684755,0.89907 1.498518,1.95294 1.808366,2.34192 l 0.563362,0.70724 -1.544013,2.40162 c -0.849207,1.32089 -1.612041,2.40161 -1.695183,2.40161 -0.08315,0 -1.439498,-0.96732 -3.014118,-2.1496 z m -3.607625,-6.22344 c 0.0026,-1.2298 0.763566,-5.93411 1.208503,-7.47037 l 0.412308,-1.42362 1.440273,2.60674 c 0.792149,1.43371 1.409382,2.68367 1.371626,2.7777 -0.03776,0.094 -1.050912,1.09204 -2.251459,2.2178 -2.09755,1.96689 -2.182751,2.01735 -2.181251,1.29175 z m 9.843981,-1.0225 -1.399251,-1.81312 1.928418,-1.24852 c 1.060627,-0.68667 1.958321,-1.22052 1.994874,-1.18632 0.03655,0.0342 -0.107815,0.82602 -0.320813,1.75961 -0.213,0.93358 -0.481031,2.28334 -0.595625,2.99945 l -0.208354,1.30203 z m -3.671673,-5.48728 c -0.778168,-1.22909 -3.079477,-6.03093 -2.948143,-6.1515 0.194257,-0.17835 4.448355,-1.42477 5.832446,-1.70887 1.748184,-0.35884 2.051931,-0.25091 2.060625,0.73224 0.0035,0.39159 0.230089,1.72402 0.503618,2.96095 0.273526,1.23692 0.394798,2.28696 0.269489,2.33341 -0.125309,0.0464 -1.257752,0.73107 -2.516539,1.52136 -1.25879,0.79029 -2.333898,1.43689 -2.389132,1.43689 -0.05524,0 -0.420799,-0.50601 -0.812364,-1.12448 z m 8.520922,-5.00169 c -0.08546,-0.48691 -0.26176,-1.48051 -0.391784,-2.208 -0.130024,-0.72748 -0.177237,-1.38188 -0.104915,-1.4542 0.07232,-0.0723 1.102479,-0.17559 2.289238,-0.22948 l 2.157746,-0.098 -1.127117,1.22278 c -0.619914,0.67252 -1.473766,1.76939 -1.897452,2.43747 l -0.770337,1.2147 z m -9.403125,-5.38884 c 0,-0.30421 1.802663,-2.72727 3.13458,-4.33062 0.387554,-0.46653 0.720983,-0.83513 0.976225,-1.09728 0.266988,-0.27422 0.01,-10e-4 0.188039,-0.20248 0.312053,-0.35235 0.930468,-1.04998 0.930468,-1.04998 l 0.06236,2.863 v 2.76947 l -2.050521,0.46446 c -1.127786,0.25545 -2.318411,0.53614 -2.645833,0.62376 -0.327422,0.0876 -0.595313,0.0695 -0.595313,-0.0403 z m 8.466667,-4.8583 c 0,-3.34541 0.01995,-3.47044 0.553752,-3.47044 0.812114,0 5.898215,1.0607 6.106279,1.27346 0.09775,0.1 -0.14037,1.342 -0.529167,2.76009 l -0.706906,2.57834 -2.116667,0.005 c -1.164166,0.003 -2.384557,0.0768 -2.711979,0.1645 -0.595212,0.15951 -0.595312,0.15895 -0.595312,-3.3109 z m 9.260416,2.48202 c 0,-0.0974 0.203523,-0.94086 0.452271,-1.87438 0.506979,-1.90263 0.378815,-1.86782 2.855021,-0.77553 l 1.322916,0.58355 -2.116666,1.03351 c -2.6812,1.30916 -2.513542,1.24027 -2.513542,1.03285 z m 5.423958,-5.43742 c -0.582083,-0.28438 -1.568336,-0.72544 -2.191676,-0.98013 l -1.133342,-0.46309 1.487064,-2.97543 1.487067,-2.97544 1.895233,1.3281 c 1.04238,0.73046 2.238867,1.61104 2.658877,1.95684 l 0.76363,0.62874 -1.66885,1.94571 c -0.917857,1.07014 -1.797277,1.96956 -1.954257,1.99872 -0.15698,0.0292 -0.761662,-0.17964 -1.343746,-0.46402 z m -8.863541,-3.07502 c -1.236927,-0.31659 -2.594227,-0.66101 -2.787587,-0.70823 -0.19336,-0.0472 0.589016,-0.47076 1.50998,-0.99837 1.783689,-1.02185 5.525929,-2.68579 5.684274,-2.52745 0.05221,0.0522 -0.411916,1.15574 -1.031391,2.45229 l -1.126318,2.35737 z"
         id="path1172"
         sodipodi:nodetypes="cscccccsccsssscsscsscssssssssccssccsscssscsscccscscssscsscsssscsssssscscsscsscsscssscscssscccssssccssscssssssssscsscssssscccssssssssccsssssscsssscccsscsssssssscs" />
    </g>
  </g>
</svg>
