<?xml version="1.0" encoding="UTF-8" standalone="no"?>
<svg
   viewBox="0 0 24 24"
   version="1.1"
   id="svg4"
   sodipodi:docname="docker.svg"
   inkscape:version="1.1.1 (3bf5ae0d25, 2021-09-20)"
   xmlns:inkscape="http://www.inkscape.org/namespaces/inkscape"
   xmlns:sodipodi="http://sodipodi.sourceforge.net/DTD/sodipodi-0.dtd"
   xmlns="http://www.w3.org/2000/svg"
   xmlns:svg="http://www.w3.org/2000/svg">
  <defs
     id="defs8" />
  <sodipodi:namedview
     id="namedview6"
     pagecolor="#505050"
     bordercolor="#ffffff"
     borderopacity="1"
     inkscape:pageshadow="0"
     inkscape:pageopacity="0"
     inkscape:pagecheckerboard="1"
     showgrid="false"
     inkscape:snap-bbox="true"
     inkscape:snap-page="true"
     inkscape:bbox-nodes="true"
     inkscape:zoom="17.541667"
     inkscape:cx="5.0166271"
     inkscape:cy="4.760095"
     inkscape:window-width="1920"
     inkscape:window-height="1027"
     inkscape:window-x="-8"
     inkscape:window-y="-8"
     inkscape:window-maximized="1"
     inkscape:current-layer="svg4" />
  <path
     d="m 23.772201,9.8991399 c -0.07223,-0.047783 -0.672283,-0.5156034 -1.966847,-0.5156034 -0.336697,0 -0.673395,0.035559 -1.008981,0.095564 C 20.544127,7.7989467 19.140665,6.9477575 19.08066,6.9121986 l -0.34781,-0.2044632 -0.216687,0.323363 a 3.9670305,3.9670305 0 0 0 -0.611166,1.4279088 c -0.240023,0.9600881 -0.09667,1.8723938 0.395591,2.6524658 -0.588942,0.335586 -1.54792,0.420039 -1.752383,0.420039 H 0.74453347 A 0.75006881,0.75006881 0 0 0 2.0723354e-5,12.287136 c 0,1.380126 0.216686546646,2.759142 0.696730576646,4.055928 0.5400495,1.427909 1.3556799,2.483561 2.4002202,3.131398 1.1756634,0.720066 3.1080629,1.127881 5.3038198,1.127881 0.9478648,0 1.9312887,-0.08333 2.9035997,-0.263358 a 11.839975,11.839975 0 0 0 3.828129,-1.392349 9.9586913,9.9586913 0 0 0 2.603573,-2.147975 c 1.260115,-1.403462 2.003516,-3.000275 2.544678,-4.379291 h 0.226686 c 1.367904,0 2.220205,-0.552272 2.689137,-1.020093 0.311139,-0.288915 0.538936,-0.635614 0.70673,-1.04454 L 24,10.066933 23.772201,9.9002505 M 2.2213356,11.085915 H 4.3326404 A 0.19779593,0.19779593 0 0 0 4.5248803,10.893676 V 8.9990567 A 0.19779593,0.19779593 0 0 0 4.3326404,8.8068169 H 2.2224468 A 0.18890622,0.18890622 0 0 0 2.030207,8.9990567 v 1.8957293 c 0.011112,0.108898 0.083341,0.19224 0.1922398,0.19224 m 2.915823,0 h 2.1113049 a 0.19779593,0.19779593 0 0 0 0.1922398,-0.19224 V 8.9990567 A 0.19779593,0.19779593 0 0 0 7.2495747,8.8068169 H 5.1382698 A 0.18890622,0.18890622 0 0 0 4.94603,8.9990567 v 1.8957293 c 0.011112,0.108898 0.083341,0.19224 0.1922398,0.19224 m 2.9636052,0 h 2.100193 c 0.120011,0 0.203352,-0.08334 0.203352,-0.19224 V 8.9990567 c 0,-0.095564 -0.07223,-0.1922398 -0.203352,-0.1922398 H 8.1007639 c -0.096676,0 -0.1800167,0.084452 -0.1800167,0.1922398 v 1.8957293 c 0,0.108898 0.072229,0.19224 0.1800167,0.19224 m 2.9280471,0 h 2.122416 c 0.09667,0 0.181128,-0.08334 0.181128,-0.19224 V 8.9990567 c 0,-0.095564 -0.07223,-0.1922398 -0.180017,-0.1922398 h -2.123527 c -0.09667,0 -0.180017,0.084452 -0.180017,0.1922398 v 1.8957293 c 0,0.108898 0.08334,0.19224 0.180017,0.19224 M 5.1371586,8.3990018 h 2.1113048 c 0.096676,0 0.1922398,-0.1077878 0.1922398,-0.2155754 V 6.298809 A 0.18890622,0.18890622 0 0 0 7.2484634,6.1076805 H 5.1371586 c -0.1088989,0 -0.1922398,0.071118 -0.1922398,0.1911285 v 1.8846174 c 0.011113,0.1077876 0.083341,0.2155754 0.1922398,0.2155754 m 2.9636053,0 h 2.1001921 c 0.120011,0 0.203352,-0.1077878 0.203352,-0.2155754 V 6.298809 c 0,-0.1077876 -0.07223,-0.1911285 -0.203352,-0.1911285 H 8.1007639 c -0.096676,0 -0.1800167,0.071118 -0.1800167,0.1911285 v 1.8846174 c 0,0.1077876 0.072229,0.2155754 0.1800167,0.2155754 m 2.9280471,0 h 2.122416 c 0.09667,0 0.181128,-0.1077878 0.181128,-0.2155754 V 6.298809 c 0,-0.1077876 -0.08445,-0.1911285 -0.180017,-0.1911285 h -2.123527 c -0.09667,0 -0.180017,0.071118 -0.180017,0.1911285 v 1.8846174 c 0,0.1077876 0.08334,0.2155754 0.180017,0.2155754 m 0,-2.7358065 h 2.122416 c 0.09667,0 0.181128,-0.083341 0.181128,-0.19224 V 3.5996726 c 0,-0.120011 -0.08445,-0.2044632 -0.180017,-0.2044632 h -2.123527 c -0.09667,0 -0.180017,0.072229 -0.180017,0.2044632 v 1.8712827 c 0,0.096676 0.08334,0.19224 0.180017,0.19224 m 2.951382,5.4238307 h 2.111304 a 0.18890622,0.18890622 0 0 0 0.19224,-0.19224 V 8.9990567 A 0.19779593,0.19779593 0 0 0 16.092607,8.8068169 H 13.97908 c -0.09557,0 -0.180016,0.084452 -0.180016,0.1922398 v 1.8957293 c 0,0.107788 0.08445,0.19224 0.180016,0.19224"
     fill="#0087c9"
     id="path2"
     style="stroke-width:1.11121" />
</svg>
