<?xml version="1.0" encoding="UTF-8" standalone="no"?>
<!-- Generator: Adobe Illustrator 19.1.0, SVG Export Plug-In . SVG Version: 6.00 Build 0)  -->

<svg
   version="1.1"
   id="Layer_1"
   x="0px"
   y="0px"
   viewBox="60 -8 21.540001 24"
   xml:space="preserve"
   sodipodi:docname="heroku.svg"
   width="21.540001"
   height="24"
   inkscape:version="1.1.1 (3bf5ae0d25, 2021-09-20)"
   xmlns:inkscape="http://www.inkscape.org/namespaces/inkscape"
   xmlns:sodipodi="http://sodipodi.sourceforge.net/DTD/sodipodi-0.dtd"
   xmlns="http://www.w3.org/2000/svg"
   xmlns:svg="http://www.w3.org/2000/svg"
   xmlns:sketch="http://www.bohemiancoding.com/sketch/ns"><defs
   id="defs11" /><sodipodi:namedview
   id="namedview9"
   pagecolor="#505050"
   bordercolor="#ffffff"
   borderopacity="1"
   inkscape:pageshadow="0"
   inkscape:pageopacity="0"
   inkscape:pagecheckerboard="1"
   showgrid="false"
   inkscape:zoom="15.692308"
   inkscape:cx="21.029412"
   inkscape:cy="9.7818628"
   inkscape:window-width="1920"
   inkscape:window-height="1027"
   inkscape:window-x="-8"
   inkscape:window-y="-8"
   inkscape:window-maximized="1"
   inkscape:current-layer="nav" />
<style
   type="text/css"
   id="style2">
	.st0{fill:#430098;}
</style>
<g
   id="Page-1"
   sketch:type="MSPage">
	<g
   id="main"
   transform="translate(-25,-23)"
   sketch:type="MSArtboardGroup">
		<g
   id="nav"
   transform="translate(25,23)"
   sketch:type="MSLayerGroup">
			<path
   id="logo"
   sketch:type="MSShapeGroup"
   class="st0"
   d="M 79.38,-8 H 62.16 C 60.96,-8 60,-7.04 60,-5.84 v 19.68 c 0,1.2 0.96,2.16 2.16,2.16 h 17.22 c 1.2,0 2.16,-0.96 2.16,-2.16 V -5.84 C 81.54,-7.04 80.58,-8 79.38,-8 Z m 0.96,21.84 c 0,0.54 -0.42,0.96 -0.96,0.96 H 62.16 c -0.54,0 -0.96,-0.42 -0.96,-0.96 V -5.84 c 0,-0.54 0.42,-0.96 0.96,-0.96 h 17.22 c 0.54,0 0.96,0.42 0.96,0.96 z M 65.4,12.4 68.1,10 65.4,7.6 Z M 75.12,2.68 C 74.64,2.2 73.74,1.6 72.24,1.6 c -1.62,0 -3.3,0.42 -4.5,0.84 V -4.4 h -2.4 V 5.98 L 67.02,5.2 c 0,0 2.76,-1.26 5.16,-1.26 1.2,0 1.5,0.66 1.5,1.26 v 7.2 h 2.4 V 5.2 C 76.14,5.02 76.14,3.7 75.12,2.68 Z M 71.94,-0.5 h 2.4 c 1.08,-1.26 1.62,-2.52 1.8,-3.9 h -2.4 c -0.24,1.38 -0.84,2.64 -1.8,3.9 z"
   sodipodi:nodetypes="ssssssssssssssssscsccccsscccccsscccsccccc"
   style="stroke-width:0.6" />
		<path
   style="fill:#ffffff;stroke-width:0.00955882"
   d="M 1.6684589,22.620611 C 1.5411292,22.542981 1.4077297,22.380279 1.3331208,22.211613 1.2118848,21.937539 1.2095844,21.716112 1.2259364,11.894447 1.2426271,1.8693744 1.2428042,1.8571559 1.3740355,1.6813952 1.4462992,1.5846111 1.5846153,1.4462992 1.6814046,1.3740355 1.8571808,1.2427998 1.8677426,1.2426471 10.769608,1.2426471 c 8.901865,0 8.912427,1.529e-4 9.088203,0.1313884 0.09679,0.072264 0.235106,0.2105809 0.307369,0.3073716 l 0.131389,0.1759831 V 12.000999 22.144608 l -0.148407,0.208069 c -0.304299,0.426635 0.38838,0.397347 -9.391321,0.397085 -8.7981077,-2.55e-4 -8.8788168,-0.0014 -9.0883821,-0.129151 z M 16.121607,16.552696 c -0.001,-4.306852 -0.0056,-4.364851 -0.398935,-5.10803 C 15.306967,10.659285 14.396214,9.9628368 13.473623,9.7248303 12.607779,9.5014629 11.356262,9.5347754 9.9213241,9.8193843 9.3469089,9.9333147 8.1940695,10.2382 7.8860294,10.357647 7.7806695,10.398502 7.7745098,10.212208 7.7745098,6.9847591 V 3.5686275 H 6.5318627 5.2892157 v 5.2323081 c 0,4.1611174 0.016308,5.2254924 0.079657,5.1990174 0.043811,-0.01831 0.5814951,-0.261689 1.1948529,-0.540841 1.6730465,-0.76144 2.9806795,-1.176087 4.3502364,-1.379446 1.539771,-0.228635 2.283777,-0.07372 2.597285,0.540809 0.12135,0.237867 0.126008,0.387235 0.126008,4.041202 v 3.794205 h 1.242647 1.242647 z m -9.3589433,2.685505 c 0.714236,-0.634676 1.2986108,-1.190764 1.2986108,-1.23575 0,-0.08617 -2.557123,-2.389706 -2.6527775,-2.389706 -0.030603,0 -0.055556,1.073328 -0.055556,2.389706 0,1.316378 0.024953,2.389706 0.055556,2.389706 0.030556,0 0.6399307,-0.51928 1.3541667,-1.153956 z M 14.711602,7.0856508 c 0.448797,-0.6053939 0.807137,-1.2345271 1.026683,-1.8025363 0.160339,-0.4148285 0.23931,-0.7100387 0.420282,-1.5711047 l 0.03013,-0.1433823 H 14.94936 13.710017 l -0.07587,0.3664215 c -0.18607,0.8986263 -0.693486,2.051175 -1.288168,2.925954 -0.186683,0.2746101 -0.361339,0.5351367 -0.388127,0.578948 -0.03832,0.062665 0.215878,0.079657 1.191671,0.079657 h 1.240376 z"
   id="path1001"
   transform="translate(60,-8)" /></g>
	</g>
</g>
</svg>
