<?xml version="1.0" encoding="UTF-8" standalone="no"?>
<!-- Created with Inkscape (http://www.inkscape.org/) -->

<svg
   width="24"
   height="24"
   viewBox="0 0 6.3499999 6.3500002"
   version="1.1"
   id="svg5"
   inkscape:version="1.1.1 (3bf5ae0d25, 2021-09-20)"
   sodipodi:docname="iot.svg"
   xmlns:inkscape="http://www.inkscape.org/namespaces/inkscape"
   xmlns:sodipodi="http://sodipodi.sourceforge.net/DTD/sodipodi-0.dtd"
   xmlns="http://www.w3.org/2000/svg"
   xmlns:svg="http://www.w3.org/2000/svg">
  <sodipodi:namedview
     id="namedview7"
     pagecolor="#505050"
     bordercolor="#ffffff"
     borderopacity="1"
     inkscape:pageshadow="0"
     inkscape:pageopacity="0"
     inkscape:pagecheckerboard="1"
     inkscape:document-units="mm"
     showgrid="false"
     units="px"
     inkscape:snap-bbox="true"
     inkscape:bbox-paths="true"
     inkscape:bbox-nodes="true"
     inkscape:snap-page="true"
     inkscape:zoom="16"
     inkscape:cx="16"
     inkscape:cy="10.03125"
     inkscape:window-width="1920"
     inkscape:window-height="1027"
     inkscape:window-x="1912"
     inkscape:window-y="-8"
     inkscape:window-maximized="1"
     inkscape:current-layer="layer1" />
  <defs
     id="defs2" />
  <g
     inkscape:label="Warstwa 1"
     inkscape:groupmode="layer"
     id="layer1">
    <g
       id="g3245"
       transform="translate(0,-0.44129907)">
      <path
         style="fill:#ffffff;stroke-width:0.00234375"
         d="m 7.902771,13.127716 c -0.2557236,0.0087 -0.5181937,-0.01337 -0.7687289,0.03786 -0.11034,0.06215 -0.044181,0.216977 -0.062173,0.321609 0,1.91573 0,3.831461 0,5.747192 0.023551,0.146518 0.1989851,0.08897 0.3031311,0.100006 0.4786544,-0.0032 0.9593581,0.0065 1.4367309,-0.0048 0.1362849,-0.03709 0.069265,-0.210079 0.08515,-0.313914 0,-1.921041 0,-3.842082 0,-5.763123 -0.027061,-0.140256 -0.2004559,-0.104734 -0.3086787,-0.11877 -0.2284028,-0.0065 -0.4569535,-0.0065 -0.6854314,-0.006 z"
         id="path1694"
         transform="scale(0.26458333)" />
      <path
         style="fill:#ffffff;stroke-width:0.00234375"
         d="m 11.733429,14.408112 c -0.560058,0.0012 -1.143046,0.138817 -1.576389,0.511042 -0.4099952,0.333877 -0.6723696,0.828471 -0.7453596,1.349946 -0.102525,0.6602 -0.078108,1.373518 0.2490557,1.971897 0.2981093,0.58574 0.8859939,1.003097 1.5317959,1.112527 0.450817,0.101482 0.920958,0.05212 1.367588,-0.04578 0.50841,-0.131732 0.973172,-0.450596 1.239322,-0.908624 0.199795,-0.327714 0.335759,-0.697738 0.354733,-1.083472 0.05808,-0.656262 0.0071,-1.368395 -0.37912,-1.925659 -0.364584,-0.544012 -0.980889,-0.903312 -1.632558,-0.960701 -0.13575,-0.01544 -0.272462,-0.02212 -0.409068,-0.02117 z m 0.02438,1.402832 c 0.139613,-0.01352 0.293535,0.01087 0.385163,0.127227 0.143941,0.176636 0.193991,0.407662 0.184948,0.631252 -0.0042,0.308945 0.01926,0.627247 -0.02067,0.937108 -0.05243,0.195526 -0.146139,0.429318 -0.35788,0.492614 -0.198056,0.01654 -0.443325,0.03524 -0.573852,-0.149353 -0.174548,-0.256187 -0.171054,-0.584209 -0.186106,-0.881742 0.0028,-0.309201 -0.01715,-0.632448 0.126658,-0.917238 0.07533,-0.118976 0.186492,-0.256762 0.343866,-0.238928 0.03261,-9.91e-4 0.06525,-7.76e-4 0.09788,-9.4e-4 z"
         id="path1733"
         transform="scale(0.26458333)" />
      <path
         style="fill:#ffffff;stroke-width:0.00234375"
         d="m 15.966095,13.133057 c -0.547584,0.0058 -1.096131,-0.0095 -1.643097,0.01746 -0.133738,0.02185 -0.09667,0.18519 -0.105873,0.281872 -0.0041,0.370949 -0.0098,0.743985 2.04e-4,1.113693 0.03705,0.136323 0.210083,0.06929 0.313921,0.08518 0.383675,-3.1e-5 0.765774,0.0094 1.149994,0.01837 0.0022,1.528799 -0.0079,3.057776 0.02075,4.586395 0.0289,0.14982 0.210753,0.08442 0.318725,0.09836 0.459945,-0.0032 0.921947,0.0065 1.38061,-0.0048 0.136073,-0.03703 0.06959,-0.209852 0.08581,-0.313608 0.0056,-1.454777 0.0055,-2.911597 0.01841,-4.365113 0.461555,-0.01632 0.925495,-0.01058 1.385755,-0.02959 0.134806,-0.03885 0.06744,-0.210176 0.08316,-0.31391 -0.0079,-0.358742 0.01476,-0.720674 -0.03065,-1.07721 -0.04237,-0.134348 -0.209282,-0.07798 -0.313964,-0.09174 -0.8879,-0.0065 -1.77584,-0.0055 -2.663758,-0.0053 z"
         id="path1772"
         transform="scale(0.26458333)" />
      <path
         style="fill:#009bcb;fill-opacity:1;stroke-width:0.00802486"
         d="M 0.93844205,5.6345564 C 0.57815724,5.5880189 0.26181124,5.3618614 0.10464317,5.0384696 0.02923306,4.8833042 -2.5394782e-4,4.7508374 1.6460587e-6,4.5683797 1.9831121e-4,4.3809172 0.03107382,4.2476229 0.11072345,4.089328 0.27213331,3.7685476 0.60776053,3.5357345 0.95402837,3.5043566 L 1.011477,3.4991466 1.037734,3.4407956 C 1.0906205,3.323273 1.2020521,3.1701595 1.3129648,3.0626139 1.4542536,2.9256132 1.650647,2.8108364 1.8362975,2.7567641 l 0.074381,-0.021663 0.02669,-0.068412 C 2.1350123,2.1601157 2.5680742,1.7764098 3.0920832,1.6435805 3.4718086,1.5473247 3.8781108,1.5871693 4.228632,1.7550382 c 0.1810059,0.086685 0.308427,0.1749385 0.4513837,0.3126305 0.046064,0.044367 0.1056936,0.1078745 0.1325104,0.141128 0.1675531,0.2077632 0.2920916,0.4674688 0.342624,0.7144861 0.00948,0.046344 0.018839,0.092045 0.020796,0.1015592 0.00291,0.014152 0.011232,0.018276 0.045724,0.022678 C 5.3414638,3.062806 5.491277,3.10796 5.6097666,3.1644949 5.8709759,3.2891253 6.1060242,3.5249513 6.225442,3.782211 6.4045205,4.167989 6.3898448,4.6066165 6.1856602,4.9712758 6.0130551,5.2795387 5.7162342,5.5116505 5.3868348,5.595953 5.2069068,5.642001 5.3854548,5.638549 3.0971265,5.640248 1.8804617,5.6411526 0.97094804,5.638748 0.93844225,5.634558 Z M 3.3017592,5.0889602 C 3.4680439,5.0479354 3.5876799,4.9528086 3.6587405,4.8051128 3.7065114,4.7058268 3.7195121,4.6485714 3.7247943,4.51424 3.7337581,4.2862471 3.683424,4.132322 3.5585569,4.0058772 3.4308503,3.8765553 3.2647918,3.8229247 3.0424235,3.839185 2.8828266,3.8508608 2.7651059,3.9008469 2.66704,3.9985973 2.5593918,4.1058969 2.5092977,4.2371834 2.5016837,4.4319571 c -0.00502,0.1283369 0.00877,0.2238501 0.046357,0.3213404 0.070907,0.183867 0.231009,0.3137781 0.4247004,0.3446123 0.033101,0.00527 0.065604,0.010893 0.072224,0.01249 0.030903,0.00747 0.1952526,-0.00625 0.2567941,-0.02144 z M 3.0401578,4.7782158 C 2.9710539,4.7459269 2.9406618,4.6667022 2.9346457,4.503169 c -0.00662,-0.1793244 0.021201,-0.2819032 0.088455,-0.3264099 0.027807,-0.018402 0.041264,-0.02166 0.089491,-0.02166 0.089948,0 0.1332774,0.034998 0.1633015,0.1319061 0.01086,0.035065 0.013824,0.074767 0.013824,0.1850756 0,0.1103077 -0.00298,0.1500114 -0.013824,0.1850758 -0.016067,0.05187 -0.041153,0.091502 -0.072692,0.1148702 -0.032083,0.023769 -0.1184028,0.027046 -0.163042,0.00619 z M 2.3307537,4.2967386 V 3.5034825 l -0.095903,-0.00542 c -0.052747,-0.00298 -0.1502475,-0.00295 -0.216671,3.35e-5 L 1.897411,3.503536 V 4.2967626 5.0899887 H 2.1140824 2.330754 Z m 2.2729895,0.1733364 0.00206,-0.6199195 0.1946018,-0.00215 0.1946019,-0.00215 V 3.6743266 c 0,-0.130122 -0.00242,-0.1723273 -0.010036,-0.1748225 -0.00826,-0.00271 -1.1765113,-0.002 -1.195702,7.08e-4 -0.0033,4.719e-4 -0.00601,0.078431 -0.00601,0.173247 v 0.1723917 l 0.1946038,0.00215 0.1946018,0.00215 0.00206,0.6199196 0.00206,0.6199197 H 4.3891564 4.6017142 L 4.603778,4.47008 Z"
         id="path854" />
    </g>
  </g>
</svg>
