<?xml version="1.0" encoding="UTF-8" standalone="no"?>
<svg
   width="24"
   height="24"
   viewBox="0 0 24 24"
   fill="none"
   version="1.1"
   id="svg20"
   sodipodi:docname="mongodb.svg"
   inkscape:version="1.1.1 (3bf5ae0d25, 2021-09-20)"
   xmlns:inkscape="http://www.inkscape.org/namespaces/inkscape"
   xmlns:sodipodi="http://sodipodi.sourceforge.net/DTD/sodipodi-0.dtd"
   xmlns="http://www.w3.org/2000/svg"
   xmlns:svg="http://www.w3.org/2000/svg">
  <defs
     id="defs24" />
  <sodipodi:namedview
     id="namedview22"
     pagecolor="#505050"
     bordercolor="#ffffff"
     borderopacity="1"
     inkscape:pageshadow="0"
     inkscape:pageopacity="0"
     inkscape:pagecheckerboard="1"
     showgrid="false"
     inkscape:snap-bbox="true"
     inkscape:snap-page="true"
     inkscape:zoom="23.038078"
     inkscape:cx="10.157097"
     inkscape:cy="12.522746"
     inkscape:window-width="1920"
     inkscape:window-height="1027"
     inkscape:window-x="-8"
     inkscape:window-y="-8"
     inkscape:window-maximized="1"
     inkscape:current-layer="svg20" />
  <rect
     style="fill:#ffffff;stroke:#88827e;stroke-width:0.15;stroke-opacity:0"
     id="rect1171"
     width="24"
     height="24"
     x="0"
     y="0" />
  <path
     d="m 13.83431,3.7946756 c -0.886323,-1.051595 -1.649552,-2.1196203 -1.805473,-2.3414417 -0.01642,-0.016431 -0.04104,-0.016431 -0.05745,0 -0.155929,0.2218214 -0.91915,1.2898467 -1.805481,2.3414417 -7.6076155,9.7025794 1.19819,16.2504484 1.19819,16.2504484 l 0.07386,0.0493 c 0.06565,1.010469 0.229786,2.464665 0.229786,2.464665 H 11.996 12.324269 c 0,0 0.164138,-1.445979 0.229794,-2.464664 l 0.07386,-0.05752 c 0.0082,0.0082 8.814038,-6.539651 1.20639,-16.2422304 z M 11.996001,19.897215 c 0,0 -0.393916,-0.336823 -0.500608,-0.509302 v -0.01652 L 11.971382,8.8061924 c 0,-0.032869 0.04925,-0.032869 0.04925,0 l 0.475981,10.5652036 v 0.01652 c -0.106684,0.17248 -0.500608,0.509303 -0.500608,0.509303 z"
     fill="#001e2b"
     id="path2"
     style="stroke-width:0.0821719" />
</svg>
