<?xml version="1.0" encoding="UTF-8" standalone="no"?>
<svg
   viewBox="0 0 24 24.000001"
   version="1.1"
   id="svg35"
   sodipodi:docname="numpy.svg"
   width="24"
   height="24"
   inkscape:version="1.1.1 (3bf5ae0d25, 2021-09-20)"
   xmlns:inkscape="http://www.inkscape.org/namespaces/inkscape"
   xmlns:sodipodi="http://sodipodi.sourceforge.net/DTD/sodipodi-0.dtd"
   xmlns="http://www.w3.org/2000/svg"
   xmlns:svg="http://www.w3.org/2000/svg">
  <sodipodi:namedview
     id="namedview37"
     pagecolor="#505050"
     bordercolor="#ffffff"
     borderopacity="1"
     inkscape:pageshadow="0"
     inkscape:pageopacity="0"
     inkscape:pagecheckerboard="1"
     showgrid="false"
     inkscape:snap-bbox="true"
     inkscape:bbox-paths="true"
     inkscape:bbox-nodes="true"
     inkscape:snap-page="true"
     inkscape:zoom="12.434544"
     inkscape:cx="7.2379009"
     inkscape:cy="6.7955848"
     inkscape:window-width="1920"
     inkscape:window-height="1027"
     inkscape:window-x="1912"
     inkscape:window-y="-8"
     inkscape:window-maximized="1"
     inkscape:current-layer="svg35" />
  <defs
     id="defs4">
    <style
       id="style2">.cls-1{fill:#4d77cf;}.cls-2{fill:#4dabcf;}</style>
  </defs>
  <rect
     style="fill:#ffffff;stroke-width:0.15"
     id="rect978"
     width="24"
     height="24"
     x="0"
     y="0" />
  <g
     id="Layer_1"
     data-name="Layer 1"
     transform="matrix(0.09676747,0,0,0.09676747,-2.320134,-3.7121341)">
    <polygon
       class="cls-2"
       points="95.25,77.66 54.49,98 92.63,117.15 132.38,96.4 "
       id="polygon16" />
    <polygon
       class="cls-2"
       points="188.34,124.65 147.95,144.93 109.75,125.75 149.41,104.99 "
       id="polygon18" />
    <polygon
       class="cls-2"
       points="241.41,98 205.63,115.96 166.62,96.28 201.41,77.94 "
       id="polygon20" />
    <polygon
       class="cls-2"
       points="148.18,51.24 112.56,69.02 149.67,87.73 184.19,69.3 "
       id="polygon22" />
    <polygon
       class="cls-2"
       points="156.04,273.5 199.66,251.73 199.62,202.57 156.04,224.36 "
       id="polygon24" />
    <polygon
       class="cls-2"
       points="199.55,136.77 156.04,158.4 156.04,207.06 199.6,185.41 "
       id="polygon26" />
    <polygon
       class="cls-2"
       points="251.97,225.63 214.76,244.19 214.73,195.09 251.97,176.3 "
       id="polygon28" />
    <polygon
       class="cls-2"
       points="251.97,110.71 214.69,129.24 214.72,177.98 251.97,159.05 "
       id="polygon30" />
    <path
       class="cls-1"
       d="m 140.64,158.4 -29.38,-14.78 v 63.84 c 0,0 -35.94,-76.46 -39.26,-83.33 -0.43,-0.89 -2.19,-1.86 -2.64,-2.1 C 62.88,118.65 44,109.09 44,109.09 v 112.83 l 26.12,14 v -59 c 0,0 35.55,68.32 35.92,69.07 0.37,0.75 3.92,7.94 7.74,10.47 5.07,3.37 26.84,16.46 26.84,16.46 z"
       id="path32" />
  </g>
</svg>
