<?xml version="1.0" encoding="UTF-8" standalone="no"?>
<!-- Generator: Adobe Illustrator 19.1.0, SVG Export Plug-In . SVG Version: 6.00 Build 0)  -->

<svg
   version="1.1"
   id="Layer_1"
   x="0px"
   y="0px"
   viewBox="0 0 24 24"
   xml:space="preserve"
   sodipodi:docname="PyCharm_Icon.svg"
   width="24"
   height="24"
   inkscape:version="1.1.1 (3bf5ae0d25, 2021-09-20)"
   xmlns:inkscape="http://www.inkscape.org/namespaces/inkscape"
   xmlns:sodipodi="http://sodipodi.sourceforge.net/DTD/sodipodi-0.dtd"
   xmlns="http://www.w3.org/2000/svg"
   xmlns:svg="http://www.w3.org/2000/svg"><defs
   id="defs108" /><sodipodi:namedview
   id="namedview106"
   pagecolor="#505050"
   bordercolor="#ffffff"
   borderopacity="1"
   inkscape:pageshadow="0"
   inkscape:pageopacity="0"
   inkscape:pagecheckerboard="1"
   showgrid="false"
   inkscape:snap-bbox="true"
   inkscape:bbox-paths="true"
   inkscape:bbox-nodes="true"
   inkscape:snap-page="true"
   inkscape:zoom="12.028571"
   inkscape:cx="15.795724"
   inkscape:cy="13.093824"
   inkscape:window-width="1920"
   inkscape:window-height="1027"
   inkscape:window-x="-8"
   inkscape:window-y="-8"
   inkscape:window-maximized="1"
   inkscape:current-layer="Layer_1" />
<g
   id="g103"
   transform="scale(0.34285714)">
	<g
   id="g91">
		<linearGradient
   id="SVGID_1_"
   gradientUnits="userSpaceOnUse"
   x1="24.998501"
   y1="27.046101"
   x2="66.656502"
   y2="27.046101">
			<stop
   offset="0"
   style="stop-color:#21D789"
   id="stop2" />
			<stop
   offset="1"
   style="stop-color:#07C3F2"
   id="stop4" />
		</linearGradient>
		<polygon
   style="fill:url(#SVGID_1_)"
   points="39.2,39.6 49.1,11 69.5,28.1 62.2,43 49.8,39.6 "
   id="polygon7" />
		<linearGradient
   id="SVGID_2_"
   gradientUnits="userSpaceOnUse"
   x1="-24.559401"
   y1="59.080601"
   x2="61.219601"
   y2="-4.2413001">
			<stop
   offset="1.075269e-002"
   style="stop-color:#FCF84A"
   id="stop9" />
			<stop
   offset="0.1116"
   style="stop-color:#A7EB62"
   id="stop11" />
			<stop
   offset="0.2056"
   style="stop-color:#5FE077"
   id="stop13" />
			<stop
   offset="0.2727"
   style="stop-color:#32DA84"
   id="stop15" />
			<stop
   offset="0.3065"
   style="stop-color:#21D789"
   id="stop17" />
			<stop
   offset="0.5768"
   style="stop-color:#21D789"
   id="stop19" />
			<stop
   offset="0.5968"
   style="stop-color:#21D789"
   id="stop21" />
			<stop
   offset="0.686"
   style="stop-color:#20D68C"
   id="stop23" />
			<stop
   offset="0.7627"
   style="stop-color:#1ED497"
   id="stop25" />
			<stop
   offset="0.8348"
   style="stop-color:#19D1A9"
   id="stop27" />
			<stop
   offset="0.904"
   style="stop-color:#13CCC2"
   id="stop29" />
			<stop
   offset="0.9707"
   style="stop-color:#0BC6E1"
   id="stop31" />
			<stop
   offset="1"
   style="stop-color:#07C3F2"
   id="stop33" />
		</linearGradient>
		<polygon
   style="fill:url(#SVGID_2_)"
   points="0,56 4.3,10.7 29.9,0 45.7,10.4 28.5,22.1 24.5,43 24.1,50.2 14.2,54.5 "
   id="polygon36" />
		<linearGradient
   id="SVGID_3_"
   gradientUnits="userSpaceOnUse"
   x1="9.3301001"
   y1="77.653603"
   x2="23.6369"
   y2="32.7598">
			<stop
   offset="0"
   style="stop-color:#21D789"
   id="stop38" />
			<stop
   offset="0.1638"
   style="stop-color:#24D788"
   id="stop40" />
			<stop
   offset="0.3047"
   style="stop-color:#2FD886"
   id="stop42" />
			<stop
   offset="0.4371"
   style="stop-color:#41DA82"
   id="stop44" />
			<stop
   offset="0.5644"
   style="stop-color:#5ADC7D"
   id="stop46" />
			<stop
   offset="0.6881"
   style="stop-color:#7AE077"
   id="stop48" />
			<stop
   offset="0.809"
   style="stop-color:#A1E36E"
   id="stop50" />
			<stop
   offset="0.9254"
   style="stop-color:#CFE865"
   id="stop52" />
			<stop
   offset="1"
   style="stop-color:#F1EB5E"
   id="stop54" />
		</linearGradient>
		<polygon
   style="fill:url(#SVGID_3_)"
   points="19.7,26.6 28.5,22.1 30.4,62.5 24,70 0,56 "
   id="polygon57" />
		<linearGradient
   id="SVGID_4_"
   gradientUnits="userSpaceOnUse"
   x1="28.275299"
   y1="38.6231"
   x2="59.408798"
   y2="-3.2358">
			<stop
   offset="0"
   style="stop-color:#21D789"
   id="stop59" />
			<stop
   offset="6.081050e-002"
   style="stop-color:#24D788"
   id="stop61" />
			<stop
   offset="0.1131"
   style="stop-color:#2FD886"
   id="stop63" />
			<stop
   offset="0.1622"
   style="stop-color:#41DA82"
   id="stop65" />
			<stop
   offset="0.2094"
   style="stop-color:#5ADD7D"
   id="stop67" />
			<stop
   offset="0.2548"
   style="stop-color:#79E077"
   id="stop69" />
			<stop
   offset="0.2581"
   style="stop-color:#7CE076"
   id="stop71" />
			<stop
   offset="0.4986"
   style="stop-color:#8CE173"
   id="stop73" />
			<stop
   offset="0.9247"
   style="stop-color:#B2E56B"
   id="stop75" />
		</linearGradient>
		<polygon
   style="fill:url(#SVGID_4_)"
   points="30.6,19.1 52.1,0 54.9,19.1 "
   id="polygon78" />
		<linearGradient
   id="SVGID_5_"
   gradientUnits="userSpaceOnUse"
   x1="75.889297"
   y1="43.9496"
   x2="13.1579"
   y2="43.368698">
			<stop
   offset="0.3871"
   style="stop-color:#FCF84A"
   id="stop80" />
			<stop
   offset="0.5358"
   style="stop-color:#ECF451"
   id="stop82" />
			<stop
   offset="0.8259"
   style="stop-color:#C2E964"
   id="stop84" />
			<stop
   offset="0.9247"
   style="stop-color:#B2E56B"
   id="stop86" />
		</linearGradient>
		<polygon
   style="fill:url(#SVGID_5_)"
   points="31.8,19.1 49.1,17.5 47.5,34.9 61.3,29.6 70,62.6 48.6,69.9 20.2,61.9 28.5,22.1 "
   id="polygon89" />
	</g>
	<g
   id="g101">
		<rect
   x="13.4"
   y="13.4"
   style="fill:#000000"
   width="43.200001"
   height="43.200001"
   id="rect93" />
		<rect
   x="17.5"
   y="48.5"
   style="fill:#ffffff"
   width="16.200001"
   height="2.7"
   id="rect95" />
		<path
   style="fill:#ffffff"
   d="m 17.3,19.1 h 7.3 c 4.3,0 6.9,2.5 6.9,6.2 v 0.1 c 0,4.1 -3.2,6.3 -7.2,6.3 h -3 V 37 H 17.4 V 19.1 Z m 7.1,9 c 2,0 3.1,-1.2 3.1,-2.7 v -0.1 c 0,-1.8 -1.2,-2.7 -3.2,-2.7 h -3 v 5.5 z"
   id="path97" />
		<path
   style="fill:#ffffff"
   d="m 33.1,28.1 v 0 c 0,-5.1 3.8,-9.3 9.3,-9.3 3.4,0 5.4,1.1 7.1,2.8 L 47,24.5 c -1.4,-1.3 -2.8,-2 -4.6,-2 -3,0 -5.2,2.5 -5.2,5.6 V 28 c 0,3.1 2.1,5.6 5.2,5.6 2,0 3.3,-0.8 4.7,-2.1 l 2.5,2.5 c -1.8,2 -3.9,3.2 -7.3,3.2 -5.3,0.1 -9.2,-4 -9.2,-9.1"
   id="path99" />
	</g>
</g>
</svg>
