<?xml version="1.0" encoding="UTF-8" standalone="no"?>
<svg
   viewBox="0 0 24 24"
   version="1.1"
   id="svg6"
   sodipodi:docname="python.svg"
   inkscape:version="1.1.1 (3bf5ae0d25, 2021-09-20)"
   xmlns:inkscape="http://www.inkscape.org/namespaces/inkscape"
   xmlns:sodipodi="http://sodipodi.sourceforge.net/DTD/sodipodi-0.dtd"
   xmlns="http://www.w3.org/2000/svg"
   xmlns:svg="http://www.w3.org/2000/svg">
  <defs
     id="defs10" />
  <sodipodi:namedview
     id="namedview8"
     pagecolor="#505050"
     bordercolor="#ffffff"
     borderopacity="1"
     inkscape:pageshadow="0"
     inkscape:pageopacity="0"
     inkscape:pagecheckerboard="1"
     showgrid="false"
     inkscape:snap-page="true"
     inkscape:snap-bbox="true"
     inkscape:zoom="17.541667"
     inkscape:cx="22.232779"
     inkscape:cy="4.9881235"
     inkscape:window-width="1920"
     inkscape:window-height="1027"
     inkscape:window-x="-8"
     inkscape:window-y="-8"
     inkscape:window-maximized="1"
     inkscape:current-layer="svg6" />
  <rect
     style="fill:#ffffff;stroke-width:0.15"
     id="rect849"
     width="24"
     height="24"
     x="0"
     y="0" />
  <path
     d="M9.86 2C8.28 2 7 3.28 7 4.86v1.68h4.29c.39 0 .71.57.71.96H4.86C3.28 7.5 2 8.78 2 10.36v3.781c0 1.58 1.28 2.86 2.86 2.86h1.18v-2.68c0-1.58 1.27-2.86 2.85-2.86h5.25c1.58 0 2.86-1.271 2.86-2.851V4.86C17 3.28 15.72 2 14.14 2zm-.72 1.61c.4 0 .72.12.72.71s-.32.891-.72.891c-.39 0-.71-.3-.71-.89s.32-.711.71-.711z"
     fill="#3c78aa"
     id="path2" />
  <path
     d="M17.959 7v2.68a2.85 2.85 0 0 1-2.85 2.859H9.86A2.85 2.85 0 0 0 7 15.389v3.75a2.86 2.86 0 0 0 2.86 2.86h4.28A2.86 2.86 0 0 0 17 19.14v-1.68h-4.291c-.39 0-.709-.57-.709-.96h7.14A2.86 2.86 0 0 0 22 13.64v-3.78a2.86 2.86 0 0 0-2.86-2.86zM8.32 11.513l-.004.004c.012-.002.025-.001.038-.004zm6.54 7.276c.39 0 .71.3.71.89a.71.71 0 0 1-.71.71c-.4 0-.72-.12-.72-.71s.32-.89.72-.89z"
     fill="#fdd835"
     id="path4" />
</svg>
