<?xml version="1.0" encoding="UTF-8" standalone="no"?>
<svg
   width="512"
   height="512"
   viewBox="0 0 512 512"
   version="1.1"
   id="svg4"
   sodipodi:docname="sass.svg"
   inkscape:version="1.1.1 (3bf5ae0d25, 2021-09-20)"
   xmlns:inkscape="http://www.inkscape.org/namespaces/inkscape"
   xmlns:sodipodi="http://sodipodi.sourceforge.net/DTD/sodipodi-0.dtd"
   xmlns="http://www.w3.org/2000/svg"
   xmlns:svg="http://www.w3.org/2000/svg">
  <defs
     id="defs8" />
  <sodipodi:namedview
     id="namedview6"
     pagecolor="#505050"
     bordercolor="#ffffff"
     borderopacity="1"
     inkscape:pageshadow="0"
     inkscape:pageopacity="0"
     inkscape:pagecheckerboard="1"
     showgrid="false"
     height="512px"
     inkscape:snap-bbox="true"
     inkscape:snap-page="true"
     inkscape:snap-grids="false"
     inkscape:snap-to-guides="false"
     inkscape:zoom="0.77477911"
     inkscape:cx="409.79422"
     inkscape:cy="334.93417"
     inkscape:window-width="1920"
     inkscape:window-height="1027"
     inkscape:window-x="-8"
     inkscape:window-y="-8"
     inkscape:window-maximized="1"
     inkscape:current-layer="svg4" />
  <circle
     style="fill:#ffffff;stroke:#cf649a;stroke-width:20;stroke-miterlimit:4;stroke-dasharray:none;stroke-opacity:1"
     id="path847"
     cx="256"
     cy="256"
     r="246" />
  <path
     fill="#cf649a"
     d="m 412.19195,266.2331 c -13.97132,0.0781 -26.0694,3.43431 -36.21618,8.42964 -3.74649,-7.41495 -7.49301,-13.89328 -8.11742,-18.73251 -0.70248,-5.61976 -1.56104,-9.05405 -0.70248,-15.76652 0.85858,-6.7125 4.76118,-16.23486 4.76118,-17.01537 -0.0781,-0.70248 -0.85856,-4.13677 -8.89794,-4.21482 -8.03937,-0.0781 -14.98601,1.56104 -15.76652,3.66845 -0.78053,2.1074 -2.34157,6.94663 -3.35625,11.94198 -1.40494,7.3369 -16.07874,33.32826 -24.43032,46.98738 -2.73182,-5.30754 -5.07338,-9.99067 -5.5417,-13.73718 -0.70246,-5.61974 -1.56103,-9.05404 -0.70246,-15.76653 0.85856,-6.71247 4.76116,-16.23484 4.76116,-17.01537 -0.0781,-0.70246 -0.85857,-4.13675 -8.89794,-4.21481 -8.03936,-0.0781 -14.986,1.56105 -15.76652,3.66845 -0.78052,2.10741 -1.63909,7.10274 -3.35625,11.94197 -1.63909,4.83925 -21.15212,48.23622 -26.22552,59.55379 -2.57571,5.77586 -4.83923,10.38093 -6.47832,13.50302 -1.63908,3.12209 -0.0781,0.23416 -0.23415,0.54636 -1.40493,2.65377 -2.18547,4.13676 -2.18547,4.13676 v 0.0781 c -1.09273,1.95131 -2.26351,3.82456 -2.80987,3.82456 -0.39026,0 -1.17078,-5.2295 0.15611,-12.4103 2.88792,-15.06406 9.91261,-38.55775 9.83456,-39.41632 0,-0.39027 1.32689,-4.52703 -4.52702,-6.63444 -5.69781,-2.10741 -7.72717,1.40493 -8.19547,1.40493 -0.46831,0 -0.85858,1.24885 -0.85858,1.24885 0,0 6.32222,-26.45968 -12.09808,-26.45968 -11.55172,0 -27.47436,12.5664 -35.35762,24.04005 -4.99533,2.73184 -15.61043,8.50769 -26.84993,14.67381 -4.29287,2.34156 -8.74184,4.83923 -12.95666,7.10275 l -0.85857,-0.93663 C 137.9948,266.85756 96.705232,249.9983 98.42238,217.99693 c 0.624416,-11.62977 4.68312,-42.30426 79.30096,-79.45708 61.11483,-30.44033 110.05351,-22.08875 118.56119,-3.51236 12.09809,26.53774 -26.14745,75.86669 -89.6819,82.96944 -24.19615,2.73182 -36.91866,-6.63445 -40.11879,-10.14678 -3.35625,-3.66845 -3.82457,-3.82457 -5.07339,-3.12209 -2.02935,1.09273 -0.78052,4.37092 0,6.32222 1.87325,4.91728 9.67846,13.65912 22.94733,18.03004 11.62977,3.82456 40.04075,5.93196 74.38368,-7.3369 38.4797,-14.90795 68.52977,-56.27558 59.70989,-90.85268 -8.97601,-35.20151 -67.359,-46.75323 -122.54186,-27.16214 -32.85994,11.70781 -68.45172,29.97201 -94.05281,53.93402 -30.440339,28.41097 -35.27957,53.23156 -33.250216,63.53445 7.102745,36.76254 57.758576,60.72455 78.052126,78.44238 -1.01467,0.54637 -1.95129,1.09274 -2.80987,1.56105 -10.14677,4.99533 -48.782583,25.21085 -58.461048,46.59713 -10.927297,24.19616 1.717148,41.60177 10.146779,43.94335 26.069409,7.25884 52.763239,-5.77587 67.202899,-27.2402 14.36158,-21.46434 12.64442,-49.32896 6.01,-62.05145 l -0.23416,-0.46832 7.96132,-4.68312 c 5.15145,-3.04404 10.22483,-5.85391 14.67381,-8.27352 -2.49767,6.79053 -4.29287,14.8299 -5.22949,26.53772 -1.09274,13.73718 4.52701,31.53307 11.94196,38.55775 3.27819,3.04404 7.18081,3.12209 9.60042,3.12209 8.58573,0 12.48834,-7.10274 16.7812,-15.61042 5.30755,-10.38093 9.99068,-22.40097 9.99068,-22.40097 0,0 -5.85391,32.54774 10.14677,32.54774 5.85392,0 11.70782,-7.57106 14.3616,-11.47366 v 0.0781 c 0,0 0.1561,-0.23416 0.46831,-0.78052 0.62443,-0.93663 0.93664,-1.48299 0.93664,-1.48299 v -0.15611 c 2.34156,-4.05871 7.57105,-13.34691 15.37626,-28.72318 10.06872,-19.82525 19.74719,-44.64582 19.74719,-44.64582 0,0 0.93663,6.08806 3.82456,16.07874 1.71714,5.93196 5.46365,12.41028 8.35157,18.73252 -2.34156,3.27817 -3.7465,5.15144 -3.7465,5.15144 l 0.0781,0.0781 c -1.87326,2.49767 -3.98066,5.15144 -6.16613,7.80522 -7.96131,9.52235 -17.48368,20.3716 -18.7325,23.49368 -1.483,3.66846 -1.17078,6.40029 1.71714,8.58574 2.10741,1.56104 5.85391,1.87324 9.83457,1.56104 7.18079,-0.46831 12.17613,-2.26351 14.6738,-3.35625 3.90261,-1.40493 8.35158,-3.51233 12.64444,-6.63442 7.80522,-5.77585 12.5664,-13.97132 12.09809,-24.89863 -0.23415,-6.01002 -2.18546,-11.94198 -4.60508,-17.56173 0.70247,-1.01468 1.40494,-2.02935 2.10742,-3.12209 12.33223,-18.03004 21.8546,-37.85528 21.8546,-37.85528 0,0 0.93661,6.08807 3.82454,16.07874 1.48299,5.07339 4.44897,10.61509 7.10275,16.07874 -11.55172,9.4443 -18.81057,20.3716 -21.30824,27.5524 -4.60507,13.26886 -1.01467,19.27888 5.77585,20.68382 3.04404,0.62442 7.41496,-0.78053 10.69315,-2.18547 4.05871,-1.32688 8.97601,-3.59039 13.50303,-6.94663 7.80521,-5.77586 15.29822,-13.81523 14.90794,-24.66448 -0.23415,-4.99534 -1.56103,-9.91262 -3.35624,-14.59575 9.83457,-4.0587 22.55708,-6.40027 38.71386,-4.44897 34.73321,4.05872 41.60179,25.75721 40.27491,34.81126 -1.32689,9.05404 -8.58574,14.04937 -11.00535,15.61043 -2.41963,1.48299 -3.20013,2.02935 -2.96599,3.12208 0.31221,1.63908 1.40495,1.56104 3.51235,1.24883 2.88794,-0.46832 18.2642,-7.41495 18.88862,-24.11812 0.93663,-21.46433 -19.43498,-44.87997 -55.57313,-44.64581 z m -267.87492,90.30632 c -11.47366,12.56641 -27.63045,17.32758 -34.49904,13.26887 -7.41495,-4.29287 -4.52702,-22.79122 9.60042,-36.13813 8.58573,-8.11742 19.74719,-15.61043 27.08407,-20.2155 1.63911,-1.01469 4.13678,-2.49767 7.10276,-4.29287 0.46831,-0.31221 0.78052,-0.46831 0.78052,-0.46831 0.54637,-0.31221 1.17078,-0.70248 1.7952,-1.09274 5.22949,19.04472 0.23415,35.74788 -11.86393,48.93868 z m 83.90604,-57.05611 c -3.98066,9.75653 -12.41028,34.81126 -17.48367,33.40633 -4.37093,-1.17078 -7.02469,-20.13745 -0.85857,-38.86997 3.12208,-9.44431 9.75652,-20.68381 13.65912,-25.05474 6.32222,-7.02469 13.19081,-9.36625 14.90796,-6.47832 2.02935,3.74649 -7.72717,30.90865 -10.22484,36.9967 z m 69.23224,33.09412 c -1.71714,0.85857 -3.27817,1.48299 -3.98064,1.01468 -0.54638,-0.31221 0.70247,-1.483 0.70247,-1.483 0,0 8.66378,-9.2882 12.09807,-13.58107 1.95131,-2.49766 4.29287,-5.3856 6.79054,-8.66378 v 0.93661 c 0,11.23952 -10.7712,18.73252 -15.61044,21.77656 z m 53.38767,-12.17614 c -1.24883,-0.93662 -1.09273,-3.82455 3.12208,-12.87859 1.6391,-3.59041 5.3856,-9.60042 11.86393,-15.29822 0.78052,2.34156 1.24883,4.60507 1.17078,6.71248 -0.0781,14.04938 -10.06872,19.27888 -16.15679,21.46433 z"
     id="path2"
     style="stroke-width:0.810775" />
</svg>
