<?xml version="1.0" encoding="UTF-8" standalone="no"?>
<!-- Generator: Adobe Illustrator 23.1.1, SVG Export Plug-In . SVG Version: 6.00 Build 0)  -->

<svg
   version="1.1"
   id="Layer_1"
   x="0px"
   y="0px"
   viewBox="0 0 90.708662 90.70866"
   xml:space="preserve"
   sodipodi:docname="ts.svg"
   width="24mm"
   height="24mm"
   inkscape:version="1.1.1 (3bf5ae0d25, 2021-09-20)"
   xmlns:inkscape="http://www.inkscape.org/namespaces/inkscape"
   xmlns:sodipodi="http://sodipodi.sourceforge.net/DTD/sodipodi-0.dtd"
   xmlns="http://www.w3.org/2000/svg"
   xmlns:svg="http://www.w3.org/2000/svg"><defs
   id="defs11" /><sodipodi:namedview
   id="namedview9"
   pagecolor="#505050"
   bordercolor="#ffffff"
   borderopacity="1"
   inkscape:pageshadow="0"
   inkscape:pageopacity="0"
   inkscape:pagecheckerboard="1"
   showgrid="false"
   units="mm"
   inkscape:snap-bbox="true"
   inkscape:bbox-nodes="true"
   inkscape:snap-page="true"
   showborder="false"
   inkscape:zoom="1.6445313"
   inkscape:cx="119.79097"
   inkscape:cy="128"
   inkscape:window-width="1920"
   inkscape:window-height="1027"
   inkscape:window-x="-8"
   inkscape:window-y="-8"
   inkscape:window-maximized="1"
   inkscape:current-layer="Layer_1"
   inkscape:document-units="mm" />
<style
   type="text/css"
   id="style2">
	.st0{fill:#3178C6;}
	.st1{fill-rule:evenodd;clip-rule:evenodd;fill:#FFFFFF;}
</style>

<g
   id="g830"
   transform="scale(0.35433071)"><rect
     class="st0"
     width="256"
     height="256"
     id="rect4"
     x="0"
     y="0" /><path
     class="st1"
     d="m 150.5,200.5 v 27.6 c 4.5,2.3 9.8,4 15.9,5.2 6.1,1.2 12.6,1.7 19.4,1.7 6.6,0 12.9,-0.6 18.9,-1.9 6,-1.3 11.2,-3.4 15.7,-6.3 4.5,-2.9 8,-6.7 10.7,-11.4 2.6,-4.7 3.9,-10.5 3.9,-17.4 0,-5 -0.7,-9.4 -2.2,-13.2 -1.5,-3.8 -3.7,-7.1 -6.5,-10.1 -2.8,-2.9 -6.2,-5.6 -10.1,-7.9 -3.9,-2.3 -8.4,-4.5 -13.3,-6.6 -3.6,-1.5 -6.9,-2.9 -9.8,-4.4 -2.9,-1.4 -5.3,-2.8 -7.3,-4.3 -2,-1.5 -3.6,-3 -4.7,-4.7 -1.1,-1.7 -1.6,-3.5 -1.6,-5.6 0,-1.9 0.5,-3.6 1.5,-5.1 1,-1.5 2.4,-2.8 4.1,-3.9 1.8,-1.1 4,-1.9 6.6,-2.5 2.6,-0.6 5.5,-0.9 8.6,-0.9 2.3,0 4.7,0.2 7.3,0.5 2.6,0.3 5.1,0.9 7.7,1.6 2.6,0.7 5.1,1.6 7.6,2.7 2.4,1.1 4.7,2.4 6.8,3.8 v -25.8 c -4.2,-1.6 -8.8,-2.8 -13.8,-3.6 -5,-0.8 -10.7,-1.2 -17.1,-1.2 -6.6,0 -12.8,0.7 -18.7,2.1 -5.9,1.4 -11,3.6 -15.5,6.6 -4.5,3 -8,6.8 -10.6,11.4 -2.6,4.6 -3.9,10.2 -3.9,16.6 0,8.2 2.4,15.2 7.1,21.1 4.8,5.8 12,10.7 21.6,14.8 3.8,1.6 7.3,3.1 10.6,4.6 3.3,1.5 6.1,3 8.5,4.7 2.4,1.7 4.3,3.4 5.7,5.3 1.4,1.9 2.1,4.1 2.1,6.5 0,1.8 -0.4,3.4 -1.3,5 -0.9,1.5 -2.2,2.8 -3.9,4 -1.7,1.2 -3.9,2 -6.6,2.6 -2.7,0.6 -5.7,0.9 -9.2,0.9 -6,0 -11.9,-1.1 -17.8,-3.2 -5.9,-2 -11.4,-5.1 -16.4,-9.3 z m -46,-68.8 H 140 V 109 H 41 v 22.7 H 76.3 V 233 h 28.1 V 131.7 Z"
     id="path6" /></g>
</svg>
