<?xml version="1.0" encoding="UTF-8" standalone="no"?>
<svg
   version="1.1"
   id="Layer_1"
   x="0px"
   y="0px"
   width="24"
   height="24"
   viewBox="0 0 23.76 23.752577"
   enable-background="new 0 0 396 288"
   xml:space="preserve"
   sodipodi:docname="uml.svg"
   inkscape:version="1.1.1 (3bf5ae0d25, 2021-09-20)"
   xmlns:inkscape="http://www.inkscape.org/namespaces/inkscape"
   xmlns:sodipodi="http://sodipodi.sourceforge.net/DTD/sodipodi-0.dtd"
   xmlns="http://www.w3.org/2000/svg"
   xmlns:svg="http://www.w3.org/2000/svg"><defs
   id="defs67" /><sodipodi:namedview
   id="namedview65"
   pagecolor="#505050"
   bordercolor="#ffffff"
   borderopacity="1"
   inkscape:pageshadow="0"
   inkscape:pageopacity="0"
   inkscape:pagecheckerboard="1"
   showgrid="false"
   inkscape:snap-bbox="true"
   inkscape:bbox-nodes="true"
   inkscape:snap-page="true"
   inkscape:zoom="11.22"
   inkscape:cx="21.301248"
   inkscape:cy="23.306595"
   inkscape:window-width="1920"
   inkscape:window-height="1027"
   inkscape:window-x="-8"
   inkscape:window-y="-8"
   inkscape:window-maximized="1"
   inkscape:current-layer="Layer_1" />


























<rect
   style="fill:#ffffff;stroke-width:0.1485"
   id="rect993"
   width="23.76"
   height="23.76"
   x="0"
   y="-0.0037115" /><g
   id="g969"
   transform="matrix(0.07926289,0,0,0.07926289,-10.935506,0.58314972)"><polygon
     fill="#fbbd16"
     points="208.096,234.496 208.096,158.167 222.729,240.603 246.553,252.477 261.867,183.949 261.867,258.923 288.753,272.151 288.753,145.616 247.914,126.278 234.982,186.663 221.937,113.84 181.323,94.391 181.323,221.04 "
     id="polygon2" /><polygon
     fill="#452e7f"
     points="335.152,123.418 335.152,215.238 394.142,184.709 394.369,219.31 292.611,272.796 292.496,145.583 "
     id="polygon4" /><path
     fill="#962444"
     d="m 275.298,12.158 -30.163,26.669 c 0,0 58.851,30.25 66,33.825 7.15,3.574 17.325,10.449 6.325,20.625 -11,10.175 -23.1,8.8 -31.35,4.675 -8.25,-4.125 -69.3,-34.925 -69.3,-34.925 l -31.074,26.399 c 0,0 59.949,30.525 69.85,35.75 9.9,5.226 46.75,18.15 81.675,-9.075 34.925,-27.225 29.976,-37.125 29.976,-39.05 0,-1.925 -0.825,-12.1 -6.875,-18.425 -6.051,-6.325 -23.65,-15.4 -31.075,-19.25 -7.425,-3.85 -53.989,-27.218 -53.989,-27.218 z"
     id="path6" /><g
     id="g56">
	<path
   fill="#6d6e71"
   d="m 393.104,167.064 c 0,4.471 -3.509,7.979 -8.076,7.979 -4.519,0 -8.123,-3.509 -8.123,-7.979 0,-4.375 3.604,-7.884 8.123,-7.884 4.568,0.001 8.076,3.509 8.076,7.884 z m -14.18,0 c 0,3.509 2.596,6.298 6.153,6.298 3.461,0 6.009,-2.789 6.009,-6.25 0,-3.51 -2.548,-6.346 -6.058,-6.346 -3.508,0.001 -6.104,2.837 -6.104,6.298 z m 4.855,4.134 h -1.827 v -7.883 c 0.722,-0.146 1.731,-0.241 3.029,-0.241 1.489,0 2.163,0.241 2.739,0.577 0.433,0.336 0.769,0.961 0.769,1.73 0,0.864 -0.672,1.538 -1.634,1.827 v 0.096 c 0.77,0.289 1.202,0.864 1.442,1.923 0.24,1.202 0.385,1.683 0.576,1.971 h -1.97 c -0.241,-0.288 -0.385,-1.01 -0.626,-1.923 -0.144,-0.865 -0.625,-1.25 -1.635,-1.25 h -0.864 v 3.173 z m 0.048,-4.47 h 0.865 c 1.01,0 1.827,-0.336 1.827,-1.153 0,-0.721 -0.528,-1.202 -1.683,-1.202 -0.481,0 -0.817,0.048 -1.01,0.097 v 2.258 z"
   id="path54" />
</g></g>

</svg>
