<?xml version="1.0" encoding="UTF-8" standalone="no"?>
<svg
   viewBox="0 0 24 24"
   version="1.1"
   id="svg10"
   sodipodi:docname="vsc.svg"
   width="24"
   height="24"
   inkscape:version="1.1.1 (3bf5ae0d25, 2021-09-20)"
   xmlns:inkscape="http://www.inkscape.org/namespaces/inkscape"
   xmlns:sodipodi="http://sodipodi.sourceforge.net/DTD/sodipodi-0.dtd"
   xmlns="http://www.w3.org/2000/svg"
   xmlns:svg="http://www.w3.org/2000/svg">
  <defs
     id="defs14" />
  <sodipodi:namedview
     id="namedview12"
     pagecolor="#505050"
     bordercolor="#ffffff"
     borderopacity="1"
     inkscape:pageshadow="0"
     inkscape:pageopacity="0"
     inkscape:pagecheckerboard="1"
     showgrid="false"
     inkscape:snap-bbox="true"
     inkscape:bbox-paths="true"
     inkscape:bbox-nodes="true"
     inkscape:snap-page="true"
     inkscape:zoom="18.605747"
     inkscape:cx="20.585037"
     inkscape:cy="15.828443"
     inkscape:window-width="1920"
     inkscape:window-height="1027"
     inkscape:window-x="-8"
     inkscape:window-y="-8"
     inkscape:window-maximized="1"
     inkscape:current-layer="svg10" />
  <g
     id="g835"
     transform="matrix(0.19291833,0,0,0.19291833,-0.47741532,-0.29006306)">
    <path
       d="m 3.656,45.043 c 0,0 -3.027,-2.191 0.61,-5.113 l 8.468,-7.594 c 0,0 2.426,-2.559 4.989,-0.328 l 78.175,59.328 v 28.45 c 0,0 -0.039,4.468 -5.757,3.976 z m 0,0"
       fill="#2489ca"
       id="path2" />
    <path
       d="M 23.809,63.379 3.656,81.742 c 0,0 -2.07,1.543 0,4.305 l 9.356,8.527 c 0,0 2.222,2.395 5.508,-0.328 L 39.879,78.008 Z m 0,0"
       fill="#1070b3"
       id="path4" />
    <path
       d="M 59.184,63.531 96.137,35.246 95.898,6.949 c 0,0 -1.578,-6.176 -6.843,-2.959 L 39.879,48.851 Z m 0,0"
       fill="#0877b9"
       id="path6" />
    <path
       d="m 90.14,123.797 c 2.145,2.203 4.747,1.48 4.747,1.48 l 28.797,-14.222 c 3.687,-2.52 3.171,-5.645 3.171,-5.645 V 20.465 c 0,-3.735 -3.812,-5.024 -3.812,-5.024 L 98.082,3.38 c -5.453,-3.379 -9.027,0.61 -9.027,0.61 0,0 4.593,-3.317 6.843,2.96 v 112.317 c 0,0.773 -0.164,1.53 -0.492,2.214 -0.656,1.332 -2.086,2.57 -5.504,2.051 z m 0,0"
       fill="#3c99d4"
       id="path8" />
  </g>
</svg>
