<?xml version="1.0" encoding="UTF-8" standalone="no"?>
<svg
   height="48"
   viewBox="0 -960 960 960"
   width="48"
   version="1.1"
   id="svg1"
   sodipodi:docname="gym-manager-logo.svg"
   inkscape:version="1.3 (0e150ed6c4, 2023-07-21)"
   xmlns:inkscape="http://www.inkscape.org/namespaces/inkscape"
   xmlns:sodipodi="http://sodipodi.sourceforge.net/DTD/sodipodi-0.dtd"
   xmlns="http://www.w3.org/2000/svg"
   xmlns:svg="http://www.w3.org/2000/svg">
  <defs
     id="defs1" />
  <sodipodi:namedview
     id="namedview1"
     pagecolor="#505050"
     bordercolor="#ffffff"
     borderopacity="1"
     inkscape:showpageshadow="0"
     inkscape:pageopacity="0"
     inkscape:pagecheckerboard="1"
     inkscape:deskcolor="#d1d1d1"
     inkscape:zoom="12.241786"
     inkscape:cx="23.403448"
     inkscape:cy="21.688012"
     inkscape:window-width="1920"
     inkscape:window-height="1027"
     inkscape:window-x="-8"
     inkscape:window-y="-8"
     inkscape:window-maximized="1"
     inkscape:current-layer="svg1" />
  <path
     d="m 516.51718,-21.100708 q -15.82411,-13.389629 -15.82411,-34.082701 0,-20.693071 15.82411,-37.734422 L 654.06524,-228.03145 226.8142,-655.28251 91.700617,-517.73445 q -15.82411,14.60688 -37.125808,14.60688 -21.301685,0 -34.691328,-13.38964 -13.3896299,-14.60687 -13.3896299,-37.12579 0,-22.51894 13.3896299,-35.90857 l 30.430994,-30.43098 -26.779273,-29.21376 q -15.8241107,-15.82411 -15.8241107,-38.34303 0,-22.51894 15.8241107,-39.56029 l 65.730935,-65.73094 -9.737923,-9.7379 q -17.04135,-15.82411 -17.04135,-38.34305 0,-22.51893 17.04135,-39.56028 17.041365,-17.04135 39.560286,-17.04135 22.51893,0 38.34304,17.04135 l 9.73792,10.95515 65.73094,-66.94816 q 15.82411,-14.60687 38.34303,-14.60687 22.51893,0 39.56029,14.60687 l 27.9965,27.9965 32.86548,-31.64822 q 14.60687,-14.60687 35.29994,-14.60687 20.69307,0 35.29994,14.60687 14.60687,14.60687 14.60687,35.29994 0,20.69307 -14.60687,35.29994 l -137.54806,136.33082 427.25104,427.25106 136.33082,-137.54806 q 13.38965,-13.38964 35.29994,-13.38964 21.91032,0 36.5172,13.38964 13.38963,13.38963 13.38963,35.29994 0,21.91031 -13.38963,35.29994 l -32.86548,32.86546 27.99652,27.99652 q 14.60687,17.04135 14.60687,39.56027 0,22.51894 -14.60687,38.34305 l -66.94818,66.94818 9.73792,9.7379 q 15.82412,17.04135 15.82412,40.16895 0,23.127549 -15.82412,37.734419 -15.82411,17.041364 -37.73442,17.041364 -21.91031,0 -40.1689,-17.041364 l -9.73792,-10.955149 -64.5137,65.730935 q -17.04135,15.8241103 -39.56027,15.8241103 -22.51893,0 -38.34305,-15.8241103 l -27.9965,-29.213753 -32.86546,32.86546 q -15.82413,15.8241107 -36.5172,15.8241107 -20.69307,0 -34.0827,-15.8241107 z"
     id="path1"
     style="fill:#000000;fill-opacity:1;stroke-width:1.21724" />
</svg>
