<?xml version="1.0" encoding="UTF-8" standalone="no"?>
<svg
   height="48"
   viewBox="0 -960 960 960"
   width="48"
   version="1.1"
   id="svg1"
   sodipodi:docname="service-radar-logo.svg"
   inkscape:version="1.3 (0e150ed6c4, 2023-07-21)"
   xmlns:inkscape="http://www.inkscape.org/namespaces/inkscape"
   xmlns:sodipodi="http://sodipodi.sourceforge.net/DTD/sodipodi-0.dtd"
   xmlns="http://www.w3.org/2000/svg"
   xmlns:svg="http://www.w3.org/2000/svg">
  <defs
     id="defs1" />
  <sodipodi:namedview
     id="namedview1"
     pagecolor="#505050"
     bordercolor="#ffffff"
     borderopacity="1"
     inkscape:showpageshadow="0"
     inkscape:pageopacity="0"
     inkscape:pagecheckerboard="1"
     inkscape:deskcolor="#d1d1d1"
     inkscape:zoom="17.3125"
     inkscape:cx="24"
     inkscape:cy="24"
     inkscape:window-width="1920"
     inkscape:window-height="1027"
     inkscape:window-x="-8"
     inkscape:window-y="-8"
     inkscape:window-maximized="1"
     inkscape:current-layer="svg1" />
  <path
     id="path1"
     style="fill:#000000;fill-opacity:1;stroke-width:1.06887"
     d="m 478.74741,-955.10591 c -64.61191,0 -125.74428,12.46166 -183.37859,37.41058 -57.6336,24.9489 -108.1969,59.14925 -151.72993,102.58679 -43.53304,43.43756 -77.563279,94.0312 -102.044022,151.77169 -24.480032,57.74049 -36.7007762,119.19257 -36.7007762,184.33892 0,65.14563 12.2837282,126.44925 36.8677902,183.96314 24.584063,57.51389 58.618288,107.989 102.085758,151.3959 43.46748,43.40691 93.86609,77.369621 151.22891,101.918765 57.36281,24.548433 118.63838,36.8260332 183.79612,36.8260332 65.13922,0 126.68022,-12.2379902 184.67294,-36.7842902 57.99275,-24.546998 108.64295,-58.581238 151.9387,-102.085758 18.46208,-18.55112 35.15506,-38.45637 50.27046,-59.53959 a 72.85318,72.85318 0 0 0 66.47056,-72.39948 72.85318,72.85318 0 0 0 -8.51759,-34.1956 c 20.85204,-53.14981 31.39817,-109.42663 31.39817,-168.89036 0,-44.61096 -6.01654,-87.56022 -17.74497,-128.97461 a 72.85318,72.85318 0 0 0 10.68874,-37.78635 72.85318,72.85318 0 0 0 -56.82566,-71.02164 c -20.97869,-36.51996 -46.11579,-69.60912 -75.65621,-99.1213 -43.2373,-43.1967 -93.92043,-77.21453 -152.0222,-102.08576 -58.10105,-24.87125 -119.68889,-37.32708 -184.7982,-37.32708 z m 0.37578,85.50988 c 108.10219,0 200.22034,37.9459 276.32048,113.86007 22.65169,22.59653 41.87671,46.65943 57.78597,72.10721 a 72.85318,72.85318 0 0 0 -10.85572,38.07862 72.85318,72.85318 0 0 0 56.40811,70.77111 c 7.18653,30.17929 10.814,61.85293 10.814,95.07128 0,46.80044 -7.82496,90.94059 -23.25635,132.48186 a 72.85318,72.85318 0 0 0 -59.7901,71.52267 72.85318,72.85318 0 0 0 5.63663,27.84917 c -5.32727,7.05415 -10.83683,13.99302 -16.6594,20.66766 l -68.3912,-68.43295 c 19.71501,-25.67218 35.51362,-54.03021 47.38951,-85.09235 11.39464,-29.80231 17.15731,-61.35847 17.61971,-94.57025 a 72.85318,72.85318 0 0 0 20.62592,-50.56273 72.85318,72.85318 0 0 0 -41.41885,-65.71901 c -14.25011,-35.04342 -35.75141,-66.93578 -64.54992,-95.61408 -57.00655,-56.76924 -126.19382,-85.1341 -207.55352,-85.1341 -81.36044,0 -150.09137,28.50335 -206.25918,85.50987 -56.16853,57.00655 -84.25729,126.19382 -84.25729,207.55352 0,81.36044 28.09416,150.09137 84.29903,206.25918 56.20488,56.16853 125.01375,84.25729 206.42619,84.25729 35.9013,0 69.11745,-5.32799 99.62235,-16.03309 30.50491,-10.70441 58.56261,-26.38093 84.21555,-47.01373 l 70.56234,68.39119 c -34.9165,30.64102 -73.8902,53.8 -116.90804,69.47678 -43.01783,15.676793 -88.92518,23.506856 -137.74271,23.50687 -107.79008,0 -199.56986,-37.74189 -275.27667,-113.27554 C 128.22251,-279.21315 90.40397,-371.021 90.40397,-479.1232 c 0,-108.1022 37.74189,-200.22033 113.27554,-276.32049 75.53364,-76.10015 167.34148,-114.15234 275.44368,-114.15234 z m 0.6263,183.83788 c 57.64999,0 106.37454,19.97332 146.21854,59.87362 16.12691,16.14911 28.85477,33.84275 38.45441,52.94264 a 72.85318,72.85318 0 0 0 -17.32745,47.09723 72.85318,72.85318 0 0 0 38.03687,63.79838 c -1.2607,17.55138 -4.47145,33.95326 -9.68667,49.22665 -6.87785,20.14254 -16.61717,38.90941 -29.22702,56.28286 l -72.69174,-69.47677 c 4.98807,-7.12582 8.73748,-15.41165 11.23151,-24.88471 2.49406,-9.47306 3.71602,-19.15427 3.71602,-28.97649 0,-29.87286 -10.42247,-55.42733 -31.31465,-76.70003 -20.89219,-21.27269 -46.58656,-31.89919 -77.0758,-31.89919 -30.48923,0 -56.21368,10.42247 -77.1593,31.31465 -20.94563,20.89219 -31.43991,46.58656 -31.43991,77.0758 0,30.48923 10.37902,56.21368 31.10589,77.1593 20.72686,20.94563 46.18459,31.43991 76.366,31.43991 10.31176,0 19.80546,-1.07722 28.47546,-3.21497 8.66926,-2.13774 16.45131,-4.62344 23.33984,-7.47377 l 71.60618,68.39121 c -17.10196,13.53905 -36.17144,23.52357 -57.24319,29.93681 -21.07245,6.41323 -43.1119,9.60315 -66.09479,9.60315 -57.22815,0 -105.6887,-19.82058 -145.34174,-59.49784 -39.65231,-39.67725 -59.4561,-88.35907 -59.4561,-146.00978 0,-57.64999 19.8206,-106.37454 59.49786,-146.21854 39.67725,-39.84472 88.35907,-59.79012 146.00978,-59.79012 z" />
</svg>
